<svg width="34" height="45" viewBox="0 0 34 45" fill="none" xmlns="http://www.w3.org/2000/svg">
<path fill-rule="evenodd" clip-rule="evenodd" d="M0.687715 0.468787C0.309522 0.848787 0 1.76279 0 2.50079C0 3.23779 2.2393 7.79879 4.97623 12.6358C7.71316 17.4718 9.95247 21.9268 9.95247 22.5338C9.95247 23.1408 7.68231 27.5138 4.90657 32.2508C2.13182 36.9888 0.0109475 41.6438 0.193078 42.5948C0.491652 44.1528 2.16665 44.3258 16.9192 44.3258C31.3015 44.3258 33.3517 44.1248 33.6264 42.6908C33.7996 41.7918 31.8588 37.5198 29.316 33.1968C26.7721 28.8748 24.3149 24.6308 23.8541 23.7668C23.2659 22.6608 24.6333 19.4188 28.466 12.8318C31.4637 7.68179 33.7807 2.76079 33.6154 1.89679C33.3607 0.560787 30.9293 0.284787 17.3452 0.0517868C8.56111 -0.0982132 1.06491 0.0887867 0.687715 0.468787ZM23.8859 12.7068C23.8859 13.1918 22.3483 14.7668 20.4692 16.2068C18.5892 17.6478 16.7739 18.8258 16.4345 18.8258C16.0951 18.8258 14.2738 17.5878 12.3878 16.0758C10.5008 14.5638 8.95722 12.9888 8.95722 12.5758C8.95722 12.1628 12.3162 11.8258 16.4216 11.8258C20.527 11.8258 23.8859 12.2228 23.8859 12.7068ZM17.795 24.4708C16.9272 25.5208 16.327 25.5768 15.282 24.7058C14.237 23.8338 14.1813 23.2308 15.0481 22.1808C15.916 21.1308 16.5161 21.0748 17.5611 21.9458C18.6061 22.8178 18.6619 23.4208 17.795 24.4708ZM20.3498 27.9108C20.0293 28.4318 19.3436 28.5948 18.8251 28.2728C18.3066 27.9508 18.1443 27.2618 18.4648 26.7408C18.7853 26.2198 19.471 26.0568 19.9895 26.3788C20.508 26.7008 20.6703 27.3898 20.3498 27.9108ZM24.3368 38.9868C25.7311 39.6248 26.8717 40.5248 26.8717 40.9868C26.8717 41.4478 22.6438 41.8258 17.4755 41.8258C12.3072 41.8258 7.81965 41.4038 7.50316 40.8888C7.18568 40.3728 8.83878 39.5218 11.1766 38.9958C13.5135 38.4698 16.8605 37.9918 18.6141 37.9328C20.3677 37.8738 22.9424 38.3478 24.3368 38.9868Z" fill="black"/>
</svg>
